<svg xmlns="http://www.w3.org/2000/svg" xmlns:xlink="http://www.w3.org/1999/xlink" version="1.1" x="0px" y="0px" viewBox="0 0 100 125" enable-background="new 0 0 100 100" xml:space="preserve"><g><path fill="none" d="M75.686,21.537l0.642-0.222c0.061-0.021,0.103-0.112,0.103-0.206v-0.128c0-0.094-0.043-0.185-0.103-0.206   l-0.642-0.222c-0.258-0.089-0.549,0.032-0.549,0.306v0.371C75.137,21.505,75.427,21.626,75.686,21.537z"/><circle fill="none" cx="76.886" cy="21.046" r="0.398"/><path fill="none" d="M78.092,21.537c0.258,0.089,0.549-0.032,0.549-0.306v-0.371c0-0.273-0.29-0.395-0.549-0.306l-0.642,0.222   c-0.061,0.021-0.103,0.112-0.103,0.206v0.128c0,0.094,0.043,0.185,0.103,0.206L78.092,21.537z"/><path fill="none" d="M83.971,33.08c0.025,0.104,0.051,0.207,0.071,0.313c0.008,0.046,0.023,0.089,0.031,0.135l0.027,0.118l-0.009,0   c0.015,0.103,0.026,0.208,0.038,0.312c0.004,0.034,0.009,0.068,0.012,0.102c0.023,0.221,0.04,0.444,0.04,0.671   c0,0.017-0.002,0.033-0.002,0.05c0.923-2.488,2.6-5.653,3.112-6.599c-0.592-0.204-1.136-0.431-1.512-0.614   c-0.818-0.398-2.374-1.226-3.479-1.844l1.562,6.867C83.909,32.751,83.935,32.917,83.971,33.08z"/><path fill="none" d="M44.947,33.507l0.968-1.037l-0.2-11.105c0.062-0.12,0.106-0.251,0.106-0.395c0-0.483-0.391-0.874-0.874-0.874   s-0.874,0.391-0.874,0.874c0,0.145,0.044,0.275,0.106,0.395l-0.2,11.105L44.947,33.507z"/><path fill="none" d="M37.521,34.917c0-0.398,0.04-0.786,0.101-1.168l-0.009-0.001l0.027-0.118c0.045-0.255,0.101-0.505,0.171-0.749   l1.626-7.135c-1.125,0.629-2.71,1.471-3.542,1.877c-0.383,0.186-0.937,0.417-1.54,0.625c0.521,0.962,2.228,4.181,3.169,6.716   C37.523,34.948,37.521,34.933,37.521,34.917z"/><path fill="none" d="M52.263,33.691l0.027,0.12l-0.009,0c0.054,0.362,0.091,0.729,0.091,1.106c0,0.016-0.002,0.031-0.002,0.047   c0.941-2.535,2.648-5.754,3.169-6.716c-0.602-0.208-1.157-0.439-1.54-0.625c-0.833-0.405-2.418-1.249-3.543-1.877l1.591,6.994   C52.141,33.048,52.209,33.367,52.263,33.691z"/><path fill="none" d="M74.774,17.789c0.025,0.122,0.052,0.295,0.136,0.342c0.136,0.076,0.309,0.069,0.431-0.104   c0.072-0.103,0.179-0.187,0.283-0.262c0.056,0.017,0.118,0.025,0.189,0.016c0.396-0.052,0.662-0.291,0.871-0.604   c0.081-0.121,0.141-0.255,0.206-0.386c0.064,0.131,0.125,0.266,0.206,0.386c0.209,0.313,0.476,0.552,0.871,0.604   c0.071,0.009,0.132,0.001,0.189-0.016c0.105,0.075,0.211,0.159,0.283,0.262c0.121,0.173,0.295,0.18,0.431,0.104   c0.084-0.047,0.111-0.22,0.136-0.342c0.02-0.095-0.003-0.198-0.007-0.298c0.001,0,0.003,0,0.004,0   c-0.013-0.318,0.01-0.642-0.045-0.952c-0.125-0.708-0.849-1.243-1.492-1.148c-0.103,0.015-0.423,0.139-0.576,0.205   c-0.152-0.066-0.473-0.189-0.576-0.205c-0.643-0.095-1.367,0.44-1.492,1.148c-0.055,0.31-0.032,0.634-0.045,0.952   c0.002,0,0.004,0,0.004,0C74.777,17.591,74.754,17.694,74.774,17.789z"/><polygon fill="none" points="41.957,20.574 41.956,20.573 41.956,20.574  "/><path fill="none" d="M48.685,85.87c-0.154,0-0.278,0.125-0.278,0.278v3.185l-2.63,2.63c-0.109,0.109-0.109,0.285,0,0.393   c0.054,0.054,0.126,0.081,0.197,0.081s0.142-0.027,0.197-0.081l2.793-2.793v-3.416C48.963,85.995,48.839,85.87,48.685,85.87z"/><path d="M48.685,83.438c-3.274,0-5.928,2.654-5.928,5.928c0,3.274,2.654,5.928,5.928,5.928s5.928-2.654,5.928-5.928   C54.613,86.092,51.959,83.438,48.685,83.438z M48.963,89.564l-2.793,2.793c-0.054,0.054-0.125,0.081-0.197,0.081   s-0.142-0.027-0.197-0.081c-0.109-0.109-0.109-0.285,0-0.393l2.63-2.63v-3.185c0-0.153,0.124-0.278,0.278-0.278   s0.278,0.125,0.278,0.278V89.564z"/><polygon points="84.81,77.528 9.53,77.528 9.53,79.242 84.81,79.242 84.81,82.658 92.211,78.385 84.81,74.111  "/><path d="M76.889,18.972c2.796,0,5.062-2.266,5.062-5.062s-2.266-5.062-5.062-5.062c-2.796,0-5.062,2.266-5.062,5.062   S74.093,18.972,76.889,18.972z M74.776,17.491c0.013-0.318-0.01-0.642,0.045-0.952c0.125-0.708,0.849-1.243,1.492-1.148   c0.103,0.015,0.423,0.139,0.576,0.205c0.152-0.066,0.473-0.189,0.576-0.205c0.643-0.095,1.367,0.44,1.492,1.148   c0.055,0.31,0.032,0.634,0.045,0.952c-0.001,0-0.003,0-0.004,0c0.004,0.1,0.027,0.203,0.007,0.298   c-0.025,0.122-0.052,0.295-0.136,0.342c-0.136,0.076-0.309,0.069-0.431-0.104c-0.072-0.103-0.179-0.187-0.283-0.262   c-0.056,0.017-0.118,0.025-0.189,0.016c-0.396-0.052-0.662-0.291-0.871-0.604c-0.081-0.121-0.141-0.255-0.206-0.386   c-0.064,0.131-0.125,0.266-0.206,0.386c-0.209,0.313-0.476,0.552-0.871,0.604c-0.071,0.009-0.132,0.001-0.189-0.016   c-0.105,0.075-0.211,0.159-0.283,0.262c-0.121,0.173-0.295,0.18-0.431,0.104c-0.084-0.047-0.111-0.22-0.136-0.342   c-0.02-0.095,0.003-0.198,0.007-0.298C74.781,17.491,74.778,17.491,74.776,17.491z"/><path d="M67.566,45.453c0.268,0.329,0.436,0.743,0.436,1.201h0.93c0-0.886-0.415-1.668-1.051-2.189   C67.787,44.83,67.684,45.168,67.566,45.453z"/><path d="M63.252,72.534h0.925v-25.88h0.005c0-0.694,0.374-1.296,0.928-1.63c-0.093-0.278-0.178-0.582-0.255-0.913   c-0.911,0.447-1.552,1.361-1.592,2.437h-0.011v0.106c0,0,0,0,0,0.001h0V72.534z"/><path d="M66.419,46.143c1.701-0.004,1.776-10.542,1.776-10.542c-0.001-0.367-0.113-0.707-0.302-0.992   c0.293-0.565,0.536-1.115,0.684-1.513c0.473-1.273,2.596-6.881,2.733-7.531h0.206l-1.633,7.165   c-0.023,0.081-0.036,0.166-0.057,0.248c-0.038,0.149-0.074,0.298-0.103,0.45c-0.002,0.013-0.006,0.025-0.009,0.038l-0.026,0.116   l0.009,0.001c-0.006,0.036-0.008,0.072-0.014,0.108c-0.022,0.15-0.044,0.299-0.057,0.451c-0.005,0.055-0.005,0.112-0.008,0.168   c-0.01,0.153-0.023,0.306-0.023,0.461c0,1.547,0.485,2.979,1.307,4.16c-0.036,0.161-0.072,0.33-0.107,0.506   c-0.536,1.7-1.509,7.931,0.081,30.085c0,0,0.084,0.052,0.234,0.128v0.518c0,1.306,0.897,2.364,2.004,2.364h0.011   c1.107,0,2.004-1.058,2.004-2.364v-0.389c0.149-0.074,0.298-0.158,0.446-0.257c0.386-10.09-0.354-21.694,1.316-25.858   c0.347,0.865,0.591,2.049,0.761,3.478c0.051,0.948,0.108,1.823,0.161,2.433c0.028,0.325,0.068,0.727,0.119,1.171   c0.241,5.342,0.03,12.367,0.275,18.776c0.095,0.063,0.19,0.113,0.285,0.166v0.431c0,1.306,0.897,2.364,2.004,2.364h0.011   c1.107,0,2.004-1.058,2.004-2.364v-0.392c0.25-0.114,0.395-0.204,0.395-0.204c1.779-24.793,0.349-29.647-0.087-30.521   c0.311-0.435,0.58-0.903,0.791-1.402c0.04,0.159,0.101,0.292,0.216,0.357c1.48,0.838,6.758-8.283,6.758-8.283   c0.259-0.458,0.291-0.98,0.14-1.444c0.027-0.143,0.014-0.315-0.065-0.534c-1.119-3.085-4.947-5.175-7.739-6.241   c-1.744-1.108-3.809-1.754-6.028-1.754c-3.62,0-6.835,1.711-8.896,4.364c-0.174,0.176-0.482,0.619-0.847,1.256   c-0.047,0.081-0.099,0.16-0.144,0.243h0.006c-1.2,2.172-2.848,6.175-2.316,9.459c-0.063,0.185-0.105,0.379-0.104,0.585   C64.589,35.611,64.718,46.148,66.419,46.143z M85.778,27.569c0.376,0.183,0.92,0.41,1.512,0.614   c-0.511,0.945-2.188,4.11-3.112,6.599c0-0.017,0.002-0.033,0.002-0.05c0-0.227-0.017-0.45-0.04-0.671   c-0.003-0.034-0.008-0.068-0.012-0.102c-0.012-0.104-0.022-0.209-0.038-0.312l0.009,0l-0.027-0.118   c-0.008-0.046-0.022-0.089-0.031-0.135c-0.02-0.106-0.046-0.209-0.071-0.313c-0.036-0.163-0.062-0.329-0.111-0.487l-1.562-6.867   C83.404,26.343,84.961,27.171,85.778,27.569z M77.347,20.982c0-0.094,0.043-0.185,0.103-0.206l0.642-0.222   c0.258-0.089,0.549,0.032,0.549,0.306v0.371c0,0.273-0.29,0.395-0.549,0.306l-0.642-0.222c-0.061-0.021-0.103-0.112-0.103-0.206   V20.982z M76.886,20.648c0.22,0,0.398,0.178,0.398,0.398c0,0.22-0.178,0.398-0.398,0.398c-0.22,0-0.398-0.178-0.398-0.398   C76.488,20.826,76.666,20.648,76.886,20.648z M75.137,20.861c0-0.273,0.29-0.395,0.549-0.306l0.642,0.222   c0.061,0.021,0.103,0.112,0.103,0.206v0.128c0,0.094-0.043,0.185-0.103,0.206l-0.642,0.222c-0.258,0.089-0.549-0.032-0.549-0.306   V20.861z"/><circle cx="44.947" cy="13.713" r="5.155"/><path d="M31.003,29.768c0,0,5.375,9.288,6.882,8.435c0.12-0.068,0.194-0.196,0.235-0.364c0.063,0.148,0.136,0.29,0.208,0.433   c0.037,1.846-0.012,2.635-0.012,2.635l0.001,0c-0.499,3.084-0.929,10.676,0.4,29.198c0,0,0.129,0.079,0.346,0.182v0.677   c0,1.33,0.913,2.408,2.04,2.408h0.011c1.127,0,2.04-1.078,2.04-2.408v-0.657c0.116-0.062,0.231-0.125,0.346-0.201   c0.258-6.732,0.021-14.132,0.305-19.629c0.015-0.154,0.029-0.301,0.04-0.433c0.046-0.528,0.094-1.25,0.14-2.046   c0.175-1.775,0.444-3.232,0.855-4.251c1.707,4.23,0.946,16.075,1.34,26.36c0.133,0.088,0.266,0.163,0.399,0.231v0.577   c0,1.33,0.914,2.408,2.04,2.408h0.011c1.127,0,2.04-1.078,2.04-2.408v-0.652c0.186-0.09,0.294-0.157,0.294-0.157   c1.341-18.687,0.891-26.245,0.387-29.276l0.006-0.001c0,0-0.04-0.651-0.02-2.146c0.16-0.271,0.309-0.55,0.434-0.842   c0.041,0.168,0.114,0.296,0.235,0.364c1.507,0.853,6.882-8.435,6.882-8.435c0.264-0.467,0.296-0.998,0.142-1.47   c0.027-0.146,0.015-0.32-0.066-0.544c-1.813-4.999-10.61-7.435-11.029-7.18c-0.008-0.006-0.016-0.012-0.024-0.018l-0.547-1.142   l-2.228,0.198v0.01c-0.064-0.002-0.126-0.01-0.19-0.01c-0.071,0-0.139,0.008-0.209,0.011v-0.011l-2.229-0.198l-0.555,1.158l0,0   c-0.451-0.243-9.217,2.193-11.027,7.182c-0.081,0.223-0.094,0.398-0.066,0.544C30.707,28.771,30.739,29.302,31.003,29.768z    M53.999,27.623c0.383,0.186,0.937,0.417,1.54,0.625c-0.521,0.962-2.228,4.181-3.169,6.716c0-0.016,0.002-0.031,0.002-0.047   c0-0.377-0.037-0.744-0.091-1.106l0.009,0l-0.027-0.12c-0.054-0.324-0.122-0.643-0.216-0.951l-1.591-6.994   C51.581,26.374,53.167,27.217,53.999,27.623z M44.073,20.97c0-0.483,0.391-0.874,0.874-0.874s0.874,0.391,0.874,0.874   c0,0.145-0.044,0.275-0.106,0.395l0.2,11.105l-0.968,1.037l-0.968-1.037l0.2-11.105C44.116,21.245,44.073,21.115,44.073,20.97z    M41.957,20.574C41.957,20.574,41.956,20.574,41.957,20.574L41.957,20.574L41.957,20.574z M35.894,27.623   c0.832-0.405,2.417-1.248,3.542-1.877l-1.626,7.135c-0.07,0.245-0.126,0.495-0.171,0.749l-0.027,0.118l0.009,0.001   c-0.06,0.381-0.101,0.769-0.101,1.168c0,0.016,0.002,0.031,0.002,0.047c-0.941-2.535-2.648-5.754-3.169-6.716   C34.957,28.04,35.511,27.809,35.894,27.623z"/><path d="M10.288,57.218c0.139,0.054,0.282,0.079,0.423,0.079c0.474,0,0.922-0.288,1.102-0.757l3.559-9.265c0,5.19,0,6.811,0,7.316   v0.231v0.542c0,0.07,0.014,0.136,0.02,0.204V70.42h0.048v1.533c0,0.779,0.638,1.417,1.417,1.417h0.259   c0.779,0,1.417-0.638,1.417-1.417V70.42h0.015V57.585h1.728v3.128c0,0.009-0.003,0.018-0.003,0.028v11.198   c0,0.787,0.644,1.431,1.431,1.431h0.294c0.787,0,1.431-0.644,1.431-1.431V70.42h0.003V55.512c0.003-0.05,0.014-0.098,0.014-0.149   v-0.542V54.59v-7.316l3.559,9.265c0.18,0.469,0.628,0.757,1.102,0.757c0.141,0,0.283-0.025,0.423-0.079   c0.608-0.234,0.912-0.916,0.678-1.525l-4.759-12.39c-0.168-0.436-0.567-0.711-1.003-0.748v-0.017c0,0,0,0,0-0.001v-0.007h-2.424   c0-0.01,0.003-0.018,0.003-0.028v-1.193c1.23-0.489,2.186-1.521,2.568-2.802l0,0.007c0.494-0.762,0.696-1.67,0.696-2.646   c0-1.655-0.827-3.115-2.089-3.995c0.812-0.179,0.509-1.101,0.017-1.266c0.027,0.763-2.125,0.437-2.125,0.437l0.018,0.008   c-0.226-0.032-0.456-0.055-0.691-0.055c-2.69,0-4.87,2.18-4.87,4.87c0,0.976,0.202,1.884,0.696,2.646l0-0.007   c0.382,1.281,1.337,2.313,2.568,2.802v1.193c0,0.01,0.003,0.018,0.003,0.028h-2.443v0.007c0,0,0,0,0,0c0,0.006,0,0.011,0,0.017   c-0.437,0.037-0.835,0.312-1.003,0.749l-4.759,12.39C9.376,56.302,9.679,56.984,10.288,57.218z"/></g><text x="0" y="115" fill="#000000" font-size="5px" font-weight="bold" font-family="'Helvetica Neue', Helvetica, Arial-Unicode, Arial, Sans-serif">Created by Marie Van den Broeck</text><text x="0" y="120" fill="#000000" font-size="5px" font-weight="bold" font-family="'Helvetica Neue', Helvetica, Arial-Unicode, Arial, Sans-serif">from the Noun Project</text></svg>