<svg xmlns:dc="http://purl.org/dc/elements/1.1/" xmlns:cc="http://creativecommons.org/ns#" xmlns:rdf="http://www.w3.org/1999/02/22-rdf-syntax-ns#" xmlns:svg="http://www.w3.org/2000/svg" xmlns="http://www.w3.org/2000/svg" xmlns:sodipodi="http://sodipodi.sourceforge.net/DTD/sodipodi-0.dtd" xmlns:inkscape="http://www.inkscape.org/namespaces/inkscape" version="1.1" x="0px" y="0px" viewBox="0 0 1100.6687 1354.3911249999999" enable-background="new 0 0 2000 2000" xml:space="preserve"><path style="" d="m 552.45095,0.006 c -39.38,-0.05 -79.145,4.208 -118.65804,12.977 -25.423,5.66 -41.457,30.847 -35.846,56.269 5.612,25.421 30.941,41.362 56.26904,35.845 149.226,-33.205 302.3179,11.461 409.9939,119.088 164.17705,164.22 172.19305,426.428 24.08,600.278 l -5.543,-102.74 c -1.414,-25.987 -24.718,-46.075 -49.666,-44.565 -25.941,1.461 -45.937,23.626 -44.57,49.66 l 11.132,206.623 c 1.367,24.007 20.516,43.254 44.569,44.575 l 206.71905,11.177 c 0.849,0.04 1.745,0.04 2.595,0.04 l 0,0 c 24.856,0 45.656,-19.476 47.072,-44.662 1.414,-25.987 -18.49,-48.252 -44.572,-49.619 l -99.31505,-5.386 C 1139.8959,678.727 1131.3249,357.915 930.94885,157.492 828.84485,55.499 693.09085,0.199 552.45095,0 Z M 44.863914,97.554 C 20.797914,97.756 1.3969143,117.852 0.07091428,142.259 -1.3430857,168.293 18.558914,190.557 44.545914,191.926 l 93.125996,5.1 C 54.300914,294.255 8.7979143,416.646 8.7979143,546.03 c 0,143.473 55.9359997,278.458 157.4329957,379.907 102.251,102.252 238.133,157.5759 378.87004,157.5759 39.241,0 78.76,-4.291 118.0929,-13.065 25.423,-5.658 41.462,-30.8939 35.755,-56.3149 -5.611,-25.42 -30.756,-41.363 -56.27,-35.75 -148.8019,33.014 -301.98694,-11.369 -409.75694,-119.137 -83.714,-83.716 -129.798,-194.928 -129.798,-313.216 0,-107.972 38.414,-210.073 108.776,-290.659 l 5.931,109.88 c 1.367,25.141 22.214,44.619 47.068,44.619 l 2.593,0 c 26.034,-1.463 45.938,-23.63 44.569,-49.665 l -11.129,-206.577 c -1.273,-24.007 -20.422,-43.252 -44.476,-44.525 L 49.736914,97.785 c -1.643,-0.168 -3.269,-0.243 -4.873,-0.231 z m 506.507036,97.813 c -15.139,0 -22.593,10.092 -22.593,30.185 l 0,38.062 c -49.568,4.293 -87.39304,19.621 -113.66304,45.893 -26.176,26.317 -39.243,60.086 -39.243,101.259 0,31.601 6.654,57.398 20.096,77.537 13.347,20.092 30.843,35.56 52.39804,46.454 21.553,10.894 48.341,20.755 80.412,29.574 l 0,166.961 c -15.989,-4.576 -28.912,-11.085 -38.58,-19.716 -9.763,-8.629 -16.931,-18.109 -21.742,-28.533 -4.761,-10.471 -10.374,-25.419 -16.836,-45.04 -2.924,-9.149 -8.11204,-16.18 -15.37604,-21.226 -7.452,-4.952 -16.554,-7.545 -27.354,-7.545 -13.442,0 -24.621,4.668 -33.534,13.913 -9.008,9.149 -13.442,19.478 -13.442,31.034 0,15.516 3.299,31.413 10.043,47.542 6.698,16.178 17.031,31.695 31.04,46.694 14.053,14.903 31.408,27.399 52.30204,37.444 21.035,10.047 45.515,16.65 73.53,19.716 l 0,96.966 c 0,11.037 1.745,19.198 5.14,24.434 3.397,5.234 9.573,7.921 18.157,7.921 9.292,0 15.281,-3.299 18.064,-9.714 2.877,-6.415 4.152,-16.744 4.152,-30.8 l 0,-89.47 c 34.195,-2.736 63.761,-11.789 88.7109,-26.835 24.856,-15.044 43.772,-34.477 56.553,-58.342 12.686,-23.772 19.148,-49.332 19.148,-76.592 0,-21.743 -3.963,-41.789 -11.982,-60.088 -8.112,-18.3 -19.524,-34.097 -34.285,-47.209 -13.915,-12.687 -29.669,-22.356 -47.261,-29.1 -17.6869,-6.745 -41.1739,-14.152 -70.9349,-22.263 l 0,-149.275 c 30.233,9.812 49.286,29.665 57.115,59.567 7.029,25.373 22.1199,38.062 45.6089,38.062 12.451,0 23.016,-4.34 31.788,-13.065 8.632,-8.678 13.158,-19.102 13.158,-31.034 0,-10.8 -3.061,-22.682 -8.863,-35.51 -5.895,-12.97 -14.247,-25.564 -25.048,-37.78 -13.536,-15.943 -29.568,-27.969 -47.913,-35.892 -18.2049,-7.925 -40.2349,-13.112 -65.8459,-15.754 l 0,-38.768 c 0,-19.667 -7.639,-29.667 -22.92,-29.667 z m -22.542,138.427 0,137.527 c -21.647,-7.97 -37.59,-16.74 -48.06,-26.409 -10.612,-9.668 -15.847,-24.052 -15.847,-42.916 0,-19.904 5.611,-34.713 16.835,-44.525 11.226,-9.762 26.98,-17.734 47.072,-23.677 z m 45.462,244.025 c 24.903,7.923 43.771,17.593 56.552,29.007 12.6869,11.367 19.2449,27.496 19.2449,48.202 0,19.431 -6.654,36.46 -19.7189,51.033 -13.158,14.574 -31.836,24.24 -56.078,29.004 l 0,-157.246 z" fill="#000000"/><text x="0" y="1098.5129" fill="#000000" font-size="5px" font-weight="bold" font-family="'Helvetica Neue', Helvetica, Arial-Unicode, Arial, Sans-serif">Created by logan</text><text x="0" y="1103.5129" fill="#000000" font-size="5px" font-weight="bold" font-family="'Helvetica Neue', Helvetica, Arial-Unicode, Arial, Sans-serif">from the Noun Project</text></svg>