<svg xmlns="http://www.w3.org/2000/svg" data-name="Layer 1" viewBox="0 0 100 125" x="0px" y="0px"><title>Artboard 45</title><path d="M17.76,27.34H36.43a8.51,8.51,0,0,1,8.5,8.5V57.95a4.8,4.8,0,0,1-6.58,4.49L36.48,96a3,3,0,0,1-3,2.81H20.69a3,3,0,0,1-3-2.81L15.84,62.44a4.8,4.8,0,0,1-6.58-4.49V35.84A8.51,8.51,0,0,1,17.76,27.34ZM27.09,1.22A10.51,10.51,0,1,0,37.61,11.73,10.51,10.51,0,0,0,27.09,1.22ZM56,62.1l1.52.36L54.8,79.86a2,2,0,0,0,1.93,2.41H63.8l.89,14.24a2.41,2.41,0,0,0,2.41,2.28h9.18a2.41,2.41,0,0,0,2.41-2.28l.89-14.24h7.07a2,2,0,0,0,1.93-2.41l-2.72-17.4,1.52-.36a4.44,4.44,0,0,0,3.24-5.37L84.88,34.24a9.05,9.05,0,0,0-8.79-6.9h-8.8a9.05,9.05,0,0,0-8.79,6.9L52.77,56.73A4.44,4.44,0,0,0,56,62.1ZM71.69,1.22A10.51,10.51,0,1,0,82.2,11.73,10.51,10.51,0,0,0,71.69,1.22Z"/><text x="0" y="115" fill="#000000" font-size="5px" font-weight="bold" font-family="'Helvetica Neue', Helvetica, Arial-Unicode, Arial, Sans-serif">Created by Gregor Cresnar</text><text x="0" y="120" fill="#000000" font-size="5px" font-weight="bold" font-family="'Helvetica Neue', Helvetica, Arial-Unicode, Arial, Sans-serif">from the Noun Project</text></svg>