<svg xmlns="http://www.w3.org/2000/svg" xmlns:xlink="http://www.w3.org/1999/xlink" xml:space="preserve" version="1.1" style="shape-rendering:geometricPrecision;text-rendering:geometricPrecision;image-rendering:optimizeQuality;" viewBox="0 0 60000 75000" x="0px" y="0px" fill-rule="evenodd" clip-rule="evenodd"><defs><style type="text/css">
   
    .fil0 {fill:black;fill-rule:nonzero}
   
  </style></defs><g><path class="fil0" d="M30235 2131c1353,0 2575,614 3457,1606 870,979 1409,2329 1409,3816 0,1487 -538,2837 -1409,3816 -158,177 -326,343 -504,494 1203,-518 2194,-1212 3026,-2054 1103,-1116 1936,-2495 2619,-4072 383,-884 928,-1424 1427,-1606 256,-93 507,-101 735,-24 236,81 433,246 572,497 246,446 297,1207 -19,2271l0 0c-699,2394 -2238,4481 -3723,6496 -1794,2433 -3507,4758 -3428,7263l0 0 0 11c1,231 -186,420 -417,421l-7425 48c-9,0 -19,0 -28,0 -231,-7 -413,-201 -406,-432 80,-2539 -1643,-4881 -3441,-7326 -1477,-2008 -3003,-4083 -3703,-6461 -2,-7 -5,-14 -7,-21 -316,-1064 -265,-1825 -19,-2271 139,-251 336,-416 572,-497 228,-78 479,-70 735,24 499,182 1044,722 1427,1606 651,1502 1438,2826 2465,3913 844,893 1854,1628 3090,2174 -162,-141 -315,-293 -460,-456 -870,-979 -1409,-2329 -1409,-3816 0,-1487 538,-2837 1409,-3816 882,-992 2104,-1606 3457,-1606zm16557 16631c45,-138 194,-213 332,-167 138,45 213,194 167,332l-16 49c-111,383 -46,782 151,1120 200,344 538,625 969,767 35,12 58,19 67,21 139,40 219,186 179,324 -40,139 -186,219 -324,179 -42,-12 -70,-21 -85,-26 -556,-183 -995,-551 -1258,-1003 -267,-458 -353,-1001 -200,-1529 10,-36 17,-58 20,-67zm1285 20252c142,-29 281,62 310,203 29,142 -62,281 -203,310 -16,3 -33,7 -50,11 -387,95 -700,351 -894,690 -198,347 -273,780 -181,1223 5,22 10,45 16,68 35,141 -51,283 -192,317 -141,35 -283,-51 -317,-192 -7,-28 -13,-57 -20,-87 -119,-574 -20,-1138 239,-1591 263,-460 691,-807 1225,-939 22,-5 45,-11 68,-15zm-16897 11238c96,108 87,273 -21,370 -108,96 -273,87 -370,-21 -7,-8 -19,-20 -35,-37 -277,-288 -654,-432 -1045,-430 -399,2 -812,153 -1150,455 -13,11 -30,27 -51,48 -104,100 -270,97 -371,-7 -100,-104 -97,-270 7,-371 17,-16 39,-36 66,-60 437,-390 975,-586 1497,-588 531,-2 1045,195 1425,590 12,12 27,29 47,52zm-18180 -9014c-45,138 -194,213 -332,167 -138,-45 -213,-194 -167,-332 10,-29 15,-46 16,-49 111,-383 46,-782 -151,-1120 -200,-344 -538,-625 -969,-767 -35,-12 -58,-19 -67,-21 -139,-40 -219,-186 -179,-324 40,-139 186,-219 324,-179 42,12 70,21 85,26 556,183 995,551 1258,1003 267,458 353,1001 200,1529 -10,36 -17,58 -20,67zm-1285 -20252c-142,29 -281,-62 -310,-203 -29,-142 62,-281 203,-310 16,-3 33,-7 50,-11 387,-95 700,-351 894,-690 198,-347 273,-780 181,-1223 -5,-22 -10,-45 -16,-68 -35,-141 51,-283 192,-317 141,-35 283,51 317,192 7,28 13,57 20,87 119,574 20,1138 -239,1591 -263,460 -691,807 -1225,939 -22,5 -45,11 -68,15zm16896 -11238c-96,-108 -87,-274 22,-371 108,-96 274,-87 371,22 16,18 27,30 34,37 277,288 654,432 1045,430 399,-2 812,-153 1150,-455l0 -1c22,-20 40,-36 51,-47 104,-100 270,-97 371,7 100,104 97,270 -7,371 -27,26 -49,46 -66,61l-1 -1c-437,390 -975,586 -1496,588 -531,2 -1045,-195 -1425,-590 -21,-22 -38,-40 -48,-52zm25641 6521c676,1172 756,2537 337,3797 -411,1236 -1301,2371 -2576,3114l0 0c-19,13 -40,24 -60,33 -1279,727 -2701,930 -3971,668 -234,-48 -463,-112 -685,-191 1051,785 2149,1297 3296,1597 1515,397 3127,427 4836,230 956,-110 1696,92 2103,433 209,176 342,390 389,627 48,243 3,496 -144,741 -261,433 -890,856 -1960,1115 -6,2 -11,3 -17,5 -2422,592 -4999,303 -7488,24 -3004,-337 -5874,-659 -8005,663l-8 5c-200,117 -456,50 -573,-150l-3761 -6418 -8 -15c-109,-204 -32,-458 173,-567 2238,-1200 3405,-3862 4622,-6641 999,-2280 2031,-4635 3737,-6430 7,-8 14,-17 22,-25 763,-806 1449,-1142 1960,-1151 285,-5 526,82 713,246 183,159 302,381 349,649 92,522 -104,1264 -678,2037 -976,1315 -1729,2658 -2156,4091 -352,1179 -484,2423 -338,3768 41,-212 97,-422 165,-629 411,-1236 1301,-2371 2576,-3114l0 0c19,-13 40,-24 60,-33 1279,-727 2701,-930 3971,-668 1300,267 2442,1019 3119,2191l1 0zm-458 3534c345,-1039 283,-2159 -268,-3113l1 0 -2 -4c-551,-952 -1489,-1565 -2560,-1785 -1080,-222 -2293,-48 -3389,575l-8 5 0 -1 -3 2c-6,4 -13,8 -20,12 -1105,638 -1874,1610 -2225,2664 -345,1039 -283,2158 267,3113l3 5c551,952 1489,1565 2560,1785 1080,222 2293,48 3389,-575l8 -5 0 1 3 -2c6,-4 13,-8 20,-12 1105,-638 1874,-1610 2225,-2664zm-16895 2698l3339 5698c2316,-1227 5178,-906 8165,-571 2418,271 4923,552 7199,-4 6,-1 11,-3 17,-4 826,-200 1280,-472 1438,-734 35,-57 47,-107 39,-146 -9,-46 -44,-95 -103,-144 -248,-208 -758,-324 -1469,-242 -1804,208 -3515,173 -5142,-253 -1638,-429 -3179,-1250 -4628,-2611 -729,-684 -1161,-1199 -1462,-1795 -299,-591 -454,-1231 -632,-2176 -342,-1812 -228,-3457 233,-5001 457,-1532 1255,-2959 2288,-4350 426,-574 579,-1074 523,-1393 -14,-77 -39,-133 -73,-163 -30,-26 -80,-40 -148,-39 -306,6 -772,266 -1365,892 -7,7 -14,14 -22,21 -1601,1684 -2605,3974 -3576,6190 -1211,2764 -2374,5418 -4620,6826zm16373 21250c10,-22 22,-43 37,-63 534,-948 591,-2055 250,-3083 -350,-1055 -1120,-2026 -2225,-2664l0 -1c-1104,-637 -2330,-817 -3420,-592 -1071,221 -2010,834 -2561,1789l-1 0c-551,955 -613,2075 -268,3114 350,1055 1120,2026 2225,2664l0 1c1104,637 2330,817 3420,592 1060,-218 1990,-821 2543,-1757zm739 395c-678,1167 -1818,1916 -3114,2183 -1280,263 -2715,56 -4002,-686l-6 -4 0 1c-1287,-743 -2186,-1884 -2599,-3128 -75,-226 -134,-456 -177,-687 -154,1303 -49,2510 265,3654 414,1510 1193,2920 2218,4302 574,773 769,1516 678,2037 -47,268 -166,490 -349,649 -187,163 -428,251 -713,246 -511,-10 -1197,-346 -1960,-1151l1 -1c-1725,-1803 -2763,-4179 -3765,-6473 -1208,-2764 -2362,-5405 -4562,-6592 -7,-4 -15,-8 -22,-12 -201,-114 -272,-370 -158,-572l3678 -6466 0 0 8 -13c122,-197 380,-258 577,-136 2159,1339 5049,1018 8065,683 2485,-276 5053,-561 7468,29l0 0c1081,259 1715,683 1977,1119 148,245 192,498 144,741 -47,237 -180,452 -389,627 -407,341 -1147,543 -2103,433 -1628,-188 -3168,-168 -4621,178 -1197,285 -2339,792 -3430,1590 204,-70 414,-127 628,-171 1280,-263 2715,-56 4002,686l6 4 0 -1c1287,743 2186,1884 2599,3128 418,1257 339,2619 -334,3790 -3,5 -6,10 -9,15zm-24247 13723c-1353,0 -2575,-614 -3457,-1606 -870,-979 -1409,-2329 -1409,-3816 0,-1487 538,-2837 1409,-3816 158,-177 326,-343 504,-494 -1203,518 -2194,1212 -3026,2054 -1103,1116 -1936,2495 -2618,4072 -383,884 -928,1424 -1427,1606 -256,93 -507,101 -735,24 -236,-81 -433,-246 -572,-497 -246,-446 -297,-1207 19,-2271l0 0c699,-2394 2238,-4481 3723,-6496 1794,-2433 3507,-4758 3428,-7263l0 0 0 -11c-1,-231 186,-420 417,-421l7425 -48c9,0 19,0 28,0 231,7 413,201 406,432 -80,2539 1643,4881 3441,7326 1477,2008 3003,4083 3703,6461 2,7 5,14 7,21 316,1064 265,1825 19,2271 -138,251 -336,416 -572,497 -228,78 -479,70 -735,-24 -499,-182 -1044,-722 -1427,-1606 -651,-1502 -1438,-2826 -2465,-3913 -844,-893 -1855,-1629 -3091,-2174 162,141 316,294 460,456 870,979 1409,2329 1409,3816 0,1487 -538,2837 -1409,3816 -881,991 -2103,1605 -3457,1605l0 2zm-2830 -2165c727,818 1728,1324 2830,1324l0 2c1101,0 2102,-507 2830,-1325 739,-831 1195,-1982 1195,-3258 0,-1275 -457,-2427 -1195,-3258 -728,-819 -1729,-1325 -2830,-1325l0 2c-1102,0 -2103,506 -2830,1324 -739,831 -1195,1982 -1195,3258 0,1275 457,2427 1195,3258zm6109 -15979l-6603 43c-96,2619 -1804,4937 -3588,7356 -1444,1959 -2939,3987 -3596,6235l0 2 0 0c-245,826 -237,1361 -88,1630 32,58 68,93 105,106 45,15 107,10 180,-17 304,-111 660,-494 944,-1149 723,-1669 1609,-3134 2789,-4328 1191,-1204 2672,-2129 4576,-2703 956,-288 1617,-405 2284,-368 661,36 1293,222 2200,540 1741,610 3109,1532 4216,2703 1097,1161 1934,2566 2623,4156 284,655 640,1039 944,1149 73,27 134,32 180,17 37,-13 73,-48 105,-106 149,-269 157,-804 -88,-1630 -2,-6 -3,-11 -5,-17 -656,-2234 -2141,-4252 -3577,-6205 -1788,-2431 -3505,-4765 -3601,-7413zm-27275 4041c-17,-23 -31,-48 -42,-73 -657,-1163 -731,-2512 -317,-3759 409,-1231 1295,-2362 2565,-3106 20,-15 41,-27 63,-37 1281,-731 2707,-934 3980,-672 234,48 463,112 685,191 -1051,-784 -2149,-1296 -3296,-1597 -1515,-397 -3127,-427 -4836,-230 -956,110 -1696,-92 -2103,-433 -209,-176 -342,-390 -389,-627 -48,-243 -3,-496 144,-741 261,-433 890,-856 1960,-1115 6,-2 11,-3 17,-5 2422,-592 4999,-303 7488,-24 3004,337 5874,659 8005,-663l8 -5c200,-117 456,-50 573,150l3761 6418 8 15c109,204 32,458 -173,567 -2238,1200 -3405,3862 -4622,6641 -999,2280 -2031,4635 -3737,6430 -7,8 -14,17 -22,25 -763,806 -1449,1142 -1960,1151 -285,5 -526,-82 -713,-246 -183,-159 -302,-381 -349,-649 -92,-522 104,-1264 678,-2037 976,-1315 1729,-2658 2156,-4091 352,-1179 483,-2423 338,-3768 -41,212 -97,422 -165,629 -413,1244 -1312,2385 -2599,3128 -8,5 -17,9 -26,14 -1282,732 -2709,937 -3983,675 -1286,-265 -2419,-1004 -3098,-2155zm436 -3569c-345,1039 -283,2159 268,3114l0 0c551,954 1489,1567 2561,1788 1084,223 2301,47 3400,-581 6,-4 13,-8 20,-12 1105,-638 1874,-1610 2225,-2664 343,-1032 284,-2143 -257,-3094 -4,-6 -8,-13 -12,-19 -551,-955 -1490,-1569 -2561,-1789 -1090,-224 -2316,-44 -3420,593l0 -1 -4 2c-1102,637 -1870,1608 -2220,2663zm-201 -24371c680,-1151 1812,-1890 3098,-2155 1283,-264 2720,-55 4008,688 1287,743 2186,1884 2599,3128 75,226 134,456 177,687 154,-1303 49,-2510 -265,-3654 -414,-1510 -1193,-2920 -2218,-4302 -574,-773 -769,-1516 -678,-2037 47,-268 166,-490 349,-649 187,-163 428,-251 713,-246 511,10 1197,346 1960,1151l-1 1c1725,1803 2763,4179 3765,6473 1208,2764 2362,5405 4562,6592 7,4 15,8 22,12 201,114 272,370 158,572l-3678 6466 0 0 -8 13c-122,197 -380,258 -577,136 -2159,-1339 -5049,-1018 -8065,-683 -2485,276 -5053,561 -7468,-29l0 0c-1081,-259 -1715,-683 -1977,-1119 -148,-245 -192,-498 -144,-741 47,-237 180,-452 389,-627 407,-341 1147,-543 2103,-433 1628,188 3168,168 4621,-178 1197,-285 2339,-792 3431,-1590 -204,70 -414,127 -628,171 -1283,264 -2720,55 -4008,-688l0 0c-1287,-743 -2186,-1884 -2599,-3128 -415,-1249 -340,-2602 321,-3767 11,-23 24,-45 39,-65zm3266 -1333c-1065,219 -1998,826 -2550,1768 -4,7 -7,14 -11,21 -551,955 -613,2074 -268,3113 348,1047 1108,2012 2200,2650 16,8 32,17 47,27 1098,627 2315,803 3397,580 1072,-221 2011,-834 2561,-1788 551,-955 614,-2075 268,-3115 -350,-1055 -1120,-2026 -2225,-2664 -1104,-637 -2330,-817 -3420,-593zm10785 13281l3265 -5740c-2220,-1393 -3373,-4032 -4577,-6786 -974,-2230 -1983,-4539 -3602,-6231l-1 -1 -1 1c-593,-626 -1059,-886 -1365,-892 -68,-1 -118,13 -148,39 -35,30 -60,86 -73,163 -56,320 98,820 523,1393 1083,1459 1908,2959 2353,4581 448,1633 507,3377 54,5311 -228,973 -458,1604 -823,2163 -363,556 -841,1011 -1569,1637 -1399,1203 -2880,1926 -4447,2299 -1556,370 -3190,393 -4911,194 -711,-82 -1221,35 -1469,242 -59,49 -94,99 -103,144 -8,39 5,89 39,146 159,264 617,538 1453,738l2 0 0 0c2269,554 4764,277 7179,9 2999,-333 5879,-653 8221,588zm13010 -23478c-727,-818 -1728,-1324 -2830,-1324 -1102,0 -2103,506 -2830,1324 -739,831 -1195,1982 -1195,3258 0,1275 457,2427 1195,3258 727,818 1728,1324 2830,1324 1102,0 2103,-506 2830,-1324 739,-831 1195,-1982 1195,-3258 0,-1275 -457,-2427 -1195,-3258z"/></g><text x="0" y="60015" fill="#000000" font-size="5px" font-weight="bold" font-family="'Helvetica Neue', Helvetica, Arial-Unicode, Arial, Sans-serif">Created by Olena Panasovska</text><text x="0" y="60020" fill="#000000" font-size="5px" font-weight="bold" font-family="'Helvetica Neue', Helvetica, Arial-Unicode, Arial, Sans-serif">from the Noun Project</text></svg>