<svg xmlns="http://www.w3.org/2000/svg" xmlns:xlink="http://www.w3.org/1999/xlink" version="1.1" x="0px" y="0px" viewBox="0 0 48 60" style="enable-background:new 0 0 48 48;" xml:space="preserve"><g><path d="M27,16.5c1.38,0,2.5-1.12,2.5-2.5s-1.12-2.5-2.5-2.5s-2.5,1.12-2.5,2.5S25.62,16.5,27,16.5z M27,12.5   c0.83,0,1.5,0.67,1.5,1.5s-0.67,1.5-1.5,1.5s-1.5-0.67-1.5-1.5S26.17,12.5,27,12.5z"/><path d="M16,17.5c1.38,0,2.5-1.12,2.5-2.5s-1.12-2.5-2.5-2.5s-2.5,1.12-2.5,2.5S14.62,17.5,16,17.5z M16,13.5   c0.83,0,1.5,0.67,1.5,1.5s-0.67,1.5-1.5,1.5s-1.5-0.67-1.5-1.5S15.17,13.5,16,13.5z"/><path d="M17.5,20c0,0.83,0.67,1.5,1.5,1.5s1.5-0.67,1.5-1.5s-0.67-1.5-1.5-1.5S17.5,19.17,17.5,20z M19,19.5   c0.28,0,0.5,0.22,0.5,0.5s-0.22,0.5-0.5,0.5s-0.5-0.22-0.5-0.5S18.72,19.5,19,19.5z"/><path d="M30.5,35c0,0.83,0.67,1.5,1.5,1.5s1.5-0.67,1.5-1.5s-0.67-1.5-1.5-1.5S30.5,34.17,30.5,35z M32.5,35   c0,0.28-0.22,0.5-0.5,0.5s-0.5-0.22-0.5-0.5s0.22-0.5,0.5-0.5S32.5,34.72,32.5,35z"/><path d="M16,31.5c-0.83,0-1.5,0.67-1.5,1.5s0.67,1.5,1.5,1.5s1.5-0.67,1.5-1.5S16.83,31.5,16,31.5z M16,33.5   c-0.28,0-0.5-0.22-0.5-0.5s0.22-0.5,0.5-0.5s0.5,0.22,0.5,0.5S16.28,33.5,16,33.5z"/><path d="M23,12.5c0.83,0,1.5-0.67,1.5-1.5S23.83,9.5,23,9.5s-1.5,0.67-1.5,1.5S22.17,12.5,23,12.5z M23,10.5   c0.28,0,0.5,0.22,0.5,0.5s-0.22,0.5-0.5,0.5s-0.5-0.22-0.5-0.5S22.72,10.5,23,10.5z"/><path d="M14.5,26c0-0.83-0.67-1.5-1.5-1.5s-1.5,0.67-1.5,1.5s0.67,1.5,1.5,1.5S14.5,26.83,14.5,26z M13,26.5   c-0.28,0-0.5-0.22-0.5-0.5s0.22-0.5,0.5-0.5s0.5,0.22,0.5,0.5S13.28,26.5,13,26.5z"/><path d="M34.5,25c0,0.83,0.67,1.5,1.5,1.5s1.5-0.67,1.5-1.5s-0.67-1.5-1.5-1.5S34.5,24.17,34.5,25z M36.5,25   c0,0.28-0.22,0.5-0.5,0.5s-0.5-0.22-0.5-0.5s0.22-0.5,0.5-0.5S36.5,24.72,36.5,25z"/><path d="M29.5,30c0,0.83,0.67,1.5,1.5,1.5s1.5-0.67,1.5-1.5s-0.67-1.5-1.5-1.5S29.5,29.17,29.5,30z M31,29.5   c0.28,0,0.5,0.22,0.5,0.5s-0.22,0.5-0.5,0.5s-0.5-0.22-0.5-0.5S30.72,29.5,31,29.5z"/><path d="M25.5,23c0,1.38,1.12,2.5,2.5,2.5s2.5-1.12,2.5-2.5s-1.12-2.5-2.5-2.5S25.5,21.62,25.5,23z M29.5,23   c0,0.83-0.67,1.5-1.5,1.5s-1.5-0.67-1.5-1.5s0.67-1.5,1.5-1.5S29.5,22.17,29.5,23z"/><path d="M24,32.5c-1.38,0-2.5,1.12-2.5,2.5s1.12,2.5,2.5,2.5s2.5-1.12,2.5-2.5S25.38,32.5,24,32.5z M24,36.5   c-0.83,0-1.5-0.67-1.5-1.5s0.67-1.5,1.5-1.5s1.5,0.67,1.5,1.5S24.83,36.5,24,36.5z"/><path d="M18.5,28c0,0.83,0.67,1.5,1.5,1.5s1.5-0.67,1.5-1.5s-0.67-1.5-1.5-1.5S18.5,27.17,18.5,28z M20.5,28   c0,0.28-0.22,0.5-0.5,0.5s-0.5-0.22-0.5-0.5s0.22-0.5,0.5-0.5S20.5,27.72,20.5,28z"/><path d="M35,21.5c0.83,0,1.5-0.67,1.5-1.5s-0.67-1.5-1.5-1.5s-1.5,0.67-1.5,1.5S34.17,21.5,35,21.5z M35,19.5   c0.28,0,0.5,0.22,0.5,0.5s-0.22,0.5-0.5,0.5s-0.5-0.22-0.5-0.5S34.72,19.5,35,19.5z"/><path d="M5,25.5c0.65,0,1.2-0.42,1.41-1h1.12c0.06,1.88,0.43,3.67,1.06,5.34l-1.04,0.43c-0.15-0.16-0.32-0.3-0.53-0.39   c-0.37-0.15-0.78-0.15-1.15,0c-0.76,0.32-1.13,1.2-0.81,1.96c0.15,0.37,0.44,0.66,0.81,0.81c0.18,0.08,0.38,0.12,0.57,0.12   c0.19,0,0.39-0.04,0.57-0.12c0.6-0.25,0.95-0.85,0.92-1.46l1.03-0.43c0.76,1.68,1.79,3.2,3.03,4.52l-0.8,0.8   c-0.56-0.26-1.24-0.18-1.7,0.28v0c-0.58,0.58-0.58,1.54,0,2.12c0.29,0.29,0.68,0.44,1.06,0.44c0.38,0,0.77-0.15,1.06-0.44   c0.46-0.46,0.54-1.14,0.28-1.7l0.8-0.8c1.32,1.25,2.85,2.28,4.52,3.03l-0.43,1.03c-0.61-0.03-1.21,0.32-1.46,0.92c0,0,0,0,0,0   c-0.32,0.76,0.05,1.64,0.81,1.96c0.19,0.08,0.38,0.11,0.57,0.11c0.59,0,1.15-0.35,1.39-0.93c0.25-0.6,0.07-1.27-0.39-1.68   l0.43-1.03c1.67,0.64,3.47,1.01,5.34,1.06v1.12c-0.58,0.21-1,0.76-1,1.41c0,0.83,0.67,1.5,1.5,1.5s1.5-0.67,1.5-1.5   c0-0.65-0.42-1.2-1-1.41v-1.12c1.88-0.06,3.67-0.43,5.34-1.06l0.43,1.03c-0.46,0.41-0.63,1.08-0.39,1.68   c0.24,0.58,0.8,0.93,1.39,0.93c0.19,0,0.38-0.04,0.57-0.11c0.76-0.32,1.13-1.2,0.81-1.96c0,0,0,0,0,0   c-0.25-0.6-0.85-0.95-1.46-0.92l-0.43-1.03c1.68-0.76,3.2-1.79,4.52-3.03l0.8,0.8c-0.26,0.56-0.18,1.24,0.28,1.7   c0.29,0.29,0.68,0.44,1.06,0.44c0.38,0,0.77-0.15,1.06-0.44c0.58-0.58,0.58-1.54,0-2.12v0c-0.46-0.46-1.14-0.54-1.7-0.28l-0.8-0.8   c1.25-1.32,2.28-2.85,3.03-4.52l1.03,0.43c-0.03,0.62,0.32,1.21,0.92,1.46c0.19,0.08,0.38,0.12,0.57,0.12s0.39-0.04,0.57-0.12   c0.37-0.15,0.66-0.44,0.81-0.81c0.32-0.76-0.05-1.64-0.81-1.96c-0.37-0.15-0.78-0.15-1.15,0c-0.21,0.09-0.38,0.22-0.53,0.39   l-1.04-0.43c0.64-1.67,1.01-3.47,1.06-5.34h1.12c0.21,0.58,0.76,1,1.41,1c0.83,0,1.5-0.67,1.5-1.5s-0.67-1.5-1.5-1.5   c-0.65,0-1.2,0.42-1.41,1h-1.12c-0.06-1.88-0.43-3.67-1.06-5.34l1.04-0.43c0.15,0.16,0.32,0.3,0.53,0.39   c0.18,0.08,0.38,0.12,0.57,0.12c0.19,0,0.39-0.04,0.57-0.12c0.76-0.32,1.13-1.2,0.81-1.96c-0.15-0.37-0.44-0.66-0.81-0.81   c-0.37-0.15-0.78-0.15-1.15,0c-0.6,0.25-0.95,0.85-0.92,1.46l-1.03,0.43c-0.76-1.68-1.79-3.2-3.03-4.52l0.8-0.8   c0.2,0.1,0.42,0.16,0.64,0.16c0.38,0,0.77-0.15,1.06-0.44c0.58-0.58,0.58-1.54,0-2.12c-0.58-0.58-1.54-0.59-2.12,0   c-0.46,0.46-0.54,1.14-0.28,1.7l-0.8,0.8c-1.32-1.25-2.85-2.28-4.52-3.03l0.43-1.03c0.03,0,0.05,0.01,0.08,0.01   c0.59,0,1.15-0.35,1.39-0.93c0.32-0.76-0.05-1.64-0.81-1.96c-0.76-0.32-1.64,0.05-1.96,0.81c0,0,0,0,0,0   c-0.25,0.6-0.07,1.27,0.39,1.68l-0.43,1.03c-1.67-0.64-3.47-1.01-5.34-1.06V6.41c0.58-0.21,1-0.76,1-1.41c0-0.83-0.67-1.5-1.5-1.5   S22.5,4.17,22.5,5c0,0.65,0.42,1.2,1,1.41v1.12c-1.88,0.06-3.67,0.43-5.34,1.06l-0.43-1.03c0.46-0.41,0.63-1.08,0.39-1.68   c0,0,0,0,0,0c-0.32-0.76-1.2-1.13-1.96-0.81c-0.76,0.32-1.13,1.2-0.81,1.96c0.24,0.58,0.8,0.93,1.39,0.93   c0.03,0,0.05-0.01,0.08-0.01l0.43,1.03c-1.68,0.76-3.2,1.79-4.52,3.03l-0.8-0.8c0.26-0.56,0.18-1.24-0.28-1.7   c-0.58-0.59-1.54-0.59-2.12,0c-0.58,0.58-0.58,1.54,0,2.12c0.29,0.29,0.68,0.44,1.06,0.44c0.22,0,0.43-0.06,0.64-0.16l0.8,0.8   c-1.25,1.32-2.28,2.85-3.03,4.52l-1.03-0.43c0.03-0.62-0.32-1.21-0.92-1.46c-0.37-0.15-0.78-0.15-1.15,0   c-0.37,0.15-0.66,0.44-0.81,0.81c-0.32,0.76,0.05,1.64,0.81,1.96c0.19,0.08,0.38,0.12,0.57,0.12s0.39-0.04,0.57-0.12   c0.21-0.09,0.38-0.22,0.53-0.39l1.04,0.43c-0.64,1.67-1.01,3.47-1.06,5.34H6.41c-0.21-0.58-0.76-1-1.41-1c-0.83,0-1.5,0.67-1.5,1.5   S4.17,25.5,5,25.5z M6.64,31.73c-0.12,0.05-0.26,0.05-0.38,0s-0.22-0.15-0.27-0.27C5.88,31.21,6,30.92,6.25,30.81   c0.13-0.05,0.26-0.05,0.38,0c0.12,0.05,0.22,0.15,0.27,0.27c0,0,0,0,0,0c0,0,0,0,0,0C7.01,31.33,6.89,31.63,6.64,31.73z    M17.19,41.74c-0.11,0.25-0.4,0.38-0.65,0.27c-0.25-0.11-0.38-0.4-0.27-0.65c0.11-0.25,0.4-0.38,0.65-0.27S17.3,41.49,17.19,41.74z    M31.73,41.36c0.11,0.25-0.02,0.55-0.27,0.65c-0.25,0.11-0.55-0.02-0.65-0.27c-0.11-0.25,0.02-0.55,0.27-0.65   c0.06-0.03,0.13-0.04,0.19-0.04C31.47,41.05,31.65,41.17,31.73,41.36z M41.36,30.81c0.06-0.03,0.13-0.04,0.19-0.04   c0.06,0,0.13,0.01,0.19,0.04c0.25,0.11,0.38,0.4,0.27,0.65c-0.05,0.12-0.15,0.22-0.27,0.27c-0.12,0.05-0.26,0.05-0.38,0   c-0.25-0.11-0.38-0.4-0.27-0.65c0,0,0,0,0,0c0,0,0,0,0,0C41.14,30.96,41.24,30.86,41.36,30.81z M41.36,16.27   c0.12-0.05,0.26-0.05,0.38,0c0.12,0.05,0.22,0.15,0.27,0.27c0.11,0.25-0.02,0.55-0.27,0.65c-0.12,0.05-0.26,0.05-0.38,0   c-0.12-0.05-0.22-0.15-0.27-0.27c0,0,0,0,0,0c0,0,0,0,0,0C40.99,16.67,41.11,16.37,41.36,16.27z M30.81,6.25   c0.11-0.25,0.4-0.38,0.65-0.27c0.25,0.11,0.38,0.4,0.27,0.65c-0.11,0.25-0.4,0.38-0.65,0.27C30.83,6.8,30.7,6.51,30.81,6.25z    M16.27,6.64c-0.11-0.25,0.02-0.55,0.27-0.65c0.06-0.03,0.13-0.04,0.19-0.04c0.2,0,0.38,0.12,0.46,0.31   c0.11,0.25-0.02,0.55-0.27,0.65C16.66,7.01,16.37,6.89,16.27,6.64z M6.64,17.19c-0.12,0.05-0.26,0.05-0.38,0   c-0.25-0.11-0.38-0.4-0.27-0.65c0.05-0.12,0.15-0.22,0.27-0.27c0.06-0.03,0.13-0.04,0.19-0.04c0.06,0,0.13,0.01,0.19,0.04   c0.25,0.11,0.38,0.4,0.27,0.65c0,0,0,0,0,0c0,0,0,0,0,0C6.86,17.04,6.76,17.14,6.64,17.19z M10.92,37.79   c-0.19,0.19-0.51,0.2-0.71,0c-0.19-0.2-0.19-0.51,0-0.71c0.2-0.19,0.51-0.19,0.71,0C11.11,37.28,11.11,37.59,10.92,37.79z M24,43.5   c-0.28,0-0.5-0.22-0.5-0.5s0.22-0.5,0.5-0.5s0.5,0.22,0.5,0.5S24.28,43.5,24,43.5z M37.79,37.08c0.19,0.2,0.19,0.51,0,0.71   c-0.2,0.2-0.51,0.19-0.71,0c-0.2-0.19-0.2-0.51,0-0.71c0.1-0.1,0.23-0.15,0.35-0.15C37.56,36.94,37.69,36.98,37.79,37.08z M43,23.5   c0.28,0,0.5,0.22,0.5,0.5s-0.22,0.5-0.5,0.5s-0.5-0.22-0.5-0.5S42.72,23.5,43,23.5z M37.08,10.21c0.1-0.1,0.23-0.15,0.35-0.15   c0.13,0,0.26,0.05,0.35,0.15c0.19,0.2,0.19,0.51,0,0.71c-0.2,0.2-0.51,0.19-0.71,0C36.89,10.72,36.89,10.41,37.08,10.21z M24,4.5   c0.28,0,0.5,0.22,0.5,0.5S24.28,5.5,24,5.5S23.5,5.28,23.5,5S23.72,4.5,24,4.5z M10.21,10.92c-0.19-0.2-0.19-0.51,0-0.71   c0.1-0.1,0.23-0.15,0.35-0.15c0.13,0,0.26,0.05,0.35,0.15c0.2,0.19,0.2,0.51,0,0.71C10.72,11.11,10.41,11.11,10.21,10.92z M24,8.5   c8.55,0,15.5,6.95,15.5,15.5S32.55,39.5,24,39.5S8.5,32.55,8.5,24S15.45,8.5,24,8.5z M5,23.5c0.28,0,0.5,0.22,0.5,0.5   S5.28,24.5,5,24.5S4.5,24.28,4.5,24S4.72,23.5,5,23.5z"/></g><text x="0" y="63" fill="#000000" font-size="5px" font-weight="bold" font-family="'Helvetica Neue', Helvetica, Arial-Unicode, Arial, Sans-serif">Created by barurezeki</text><text x="0" y="68" fill="#000000" font-size="5px" font-weight="bold" font-family="'Helvetica Neue', Helvetica, Arial-Unicode, Arial, Sans-serif">from the Noun Project</text></svg>