<svg xmlns="http://www.w3.org/2000/svg" xmlns:xlink="http://www.w3.org/1999/xlink" version="1.1" x="0px" y="0px" viewBox="0 0 100 125" enable-background="new 0 0 100 100" xml:space="preserve"><path d="M90.815,54.747c-0.275-0.372-0.604-0.696-0.966-0.993c-0.683-1.203-1.49-2.457-2.316-3.731  c-1.356-2.095-4.18-6.452-3.754-7.541c1.541-3.533,2.152-5.17,1.786-10.276c-0.546-7.602-3.631-15.123-8.464-20.634  C71.85,5.584,61.967,2.01,50.665,2.01c-10.511,0-20.322,3.067-26.242,8.204C19.7,14.311,11.739,22.96,11.492,34.854  c-0.069,3.291,0.25,6.307,0.843,9.103c0.027,0.125,0.06,0.245,0.088,0.37c1.793,8.064,5.87,14.29,9.59,19.953l1.125,1.704  c1.479,2.217,3.154,4.73,3.455,6.994c0.78,5.897-0.048,10.733-2.46,14.374c-1.647,2.487-3.429,5.106-5.289,7.413  c-0.484,0.6-0.58,1.424-0.248,2.118c0.332,0.695,1.034,1.138,1.804,1.138h42.706c0.705,0,1.358-0.371,1.719-0.978  c0.36-0.605,0.375-1.356,0.039-1.977c-0.969-1.785-1.451-3.798-1.582-5.302h12.471c5.413,0,7.169-4.574,7.77-6.141l8.021-23.23  C92.194,58.268,91.936,56.262,90.815,54.747z M15.491,34.938c0.205-9.832,6.396-17.229,11.554-21.703  C32.259,8.71,41.089,6.01,50.665,6.01c10.167,0,18.926,3.065,23.429,8.2c4.271,4.869,6.997,11.533,7.481,18.282  c0.311,4.327-0.136,5.351-1.462,8.391c-0.011,0.024-0.047,0.108-0.057,0.132c-1.159,2.969,1.328,6.873,4.009,11.012  c-0.106-0.002-0.205-0.012-0.313-0.012l-28.665,0.001c-2.024,0-3.866,0.667-5.264,1.753L16.067,42.174  C15.657,39.924,15.437,37.531,15.491,34.938z M26.465,63.765l-1.109-1.681c-3.087-4.7-6.239-9.501-8.125-15.28l30.217,10.379  c-0.15,0.522-0.238,1.065-0.238,1.627l1.562,18.927H30.858c0.036-1.68-0.057-3.438-0.301-5.282  C30.135,69.269,28.186,66.345,26.465,63.765z M24.418,94.021c1.06-1.481,2.078-2.994,3.049-4.46  c1.511-2.279,2.514-4.897,3.021-7.825h18.613l0.109,1.327c0.057,3.704,3.569,6.702,7.879,6.702h2.206  c0.078,1.384,0.364,2.859,0.811,4.256H24.418z M63.398,87.766L63.398,87.766c0.005-0.001,0.009,0,0.014,0H63.398z M87.74,59.155  l-1.664,4.818l-1.148,3.325l-5.164,14.956c-1.118,2.914-2.412,3.511-4.012,3.511H59.948h-2.859c-2.104,0-3.88-1.279-3.88-2.793  L51.21,58.741c0.053-1.483,1.807-2.725,3.879-2.725l28.663-0.001c1.302,0,2.355,0.189,3.068,0.527  c0.341,0.162,0.61,0.354,0.779,0.583C88.068,57.759,87.875,58.712,87.74,59.155z"/><circle cx="69.062" cy="42.424" r="3.562"/><text x="0" y="115" fill="#000000" font-size="5px" font-weight="bold" font-family="'Helvetica Neue', Helvetica, Arial-Unicode, Arial, Sans-serif">Created by corpus delicti</text><text x="0" y="120" fill="#000000" font-size="5px" font-weight="bold" font-family="'Helvetica Neue', Helvetica, Arial-Unicode, Arial, Sans-serif">from the Noun Project</text></svg>