<?xml version="1.0" encoding="utf-8"?>
<!-- Generator: Adobe Illustrator 24.1.3, SVG Export Plug-In . SVG Version: 6.00 Build 0)  -->
<svg version="1.1" id="Layer_1" xmlns="http://www.w3.org/2000/svg" xmlns:xlink="http://www.w3.org/1999/xlink" x="0px" y="0px"
	 viewBox="0 0 60 60" style="enable-background:new 0 0 60 60;" xml:space="preserve">
<style type="text/css">
	.st0{fill:#00AEEF;}
	.st1{fill:#008142;}
</style>
<g>
	<circle class="st0" cx="30" cy="30" r="30"/>
	<circle class="st0" cx="30" cy="30" r="28"/>
	<path class="st1" d="M33.4,51.4c-1.4,0-2.6-0.8-3.2-2.1l-1.1-2.7c-0.1-0.1-0.1-0.3-0.1-0.4l-1.9-7.6c0-0.1-0.1-0.2-0.1-0.3l-1-2
		c-0.3-0.6-1-0.9-1.6-0.7l-1,0.2c-1,0.3-2.1,0-3-0.6l-3.2-2.5c-0.8-0.7-1.3-1.6-1.3-2.7v-1.1c0-0.7,0.2-1.4,0.6-2l3.8-5.4
		c0.6-0.9,1.7-1.4,2.8-1.4h2.1c0.6,0,1.2,0.2,1.8,0.5l3.6,2.2l0,0c0.3,0.2,0.7,0.2,1,0.2l2.2-0.4c1.6-0.3,3.2,0.5,3.8,2l1.9,4.5
		c0.1,0.3,0.3,0.5,0.6,0.7l2,1.2c0.8,0.5,1.4,1.4,1.6,2.3c0.2,1-0.1,2-0.7,2.7L41.3,38c-0.2,0.2-0.3,0.6-0.3,0.9V42
		c0,0.9-0.4,1.8-1,2.4l-1.1,1.1c-0.1,0.1-0.2,0.2-0.2,0.3l-2.4,4c-0.4,0.7-1.1,1.2-1.8,1.5C34.1,51.3,33.8,51.4,33.4,51.4z"/>
	<path class="st1" d="M24.8,33.4c1.3,0,2.4,0.7,3,1.9l1,2c0.1,0.2,0.2,0.5,0.3,0.7l1.9,7.6c0,0.1,0,0.1,0.1,0.2l1.1,2.7
		c0.3,0.7,1,1,1.8,0.8c0.3-0.1,0.6-0.3,0.8-0.6l2.4-4c0.1-0.2,0.3-0.5,0.5-0.7l1.1-1.1c0.3-0.3,0.4-0.6,0.4-1v-3.2
		c0-0.8,0.3-1.5,0.7-2.1l1.8-2.2c0.3-0.3,0.4-0.7,0.3-1.1c-0.1-0.4-0.3-0.7-0.7-1l-2-1.2c-0.6-0.4-1.1-0.9-1.4-1.6l-1.9-4.5
		c-0.3-0.6-0.9-1-1.6-0.8l-2.2,0.4c-0.8,0.2-1.7,0-2.4-0.4l-3.6-2.2c-0.2-0.1-0.5-0.2-0.7-0.2h-2.1c-0.5,0-0.9,0.2-1.1,0.6L18.3,28
		c-0.2,0.2-0.3,0.5-0.3,0.8v1.1c0,0.4,0.2,0.8,0.5,1.1l3.2,2.5c0.3,0.3,0.8,0.4,1.2,0.3l1-0.2C24.2,33.4,24.5,33.4,24.8,33.4z"/>
	<path class="st1" d="M45,50c-0.3,0-0.5-0.1-0.7-0.3l-2-2c-0.2-0.2-0.3-0.6-0.3-0.9l1-5c0-0.2,0.1-0.4,0.3-0.5l3-3
		c0.3-0.3,0.6-0.4,1-0.2c0.4,0.1,0.6,0.4,0.7,0.8l1,5c0,0.2,0,0.5-0.1,0.7l-3,5c-0.2,0.3-0.4,0.4-0.7,0.5C45.1,50,45.1,50,45,50z"/>
	<polygon class="st1" points="44.1,46.7 44.8,47.4 47,43.8 46.4,41 45,42.5 	"/>
	<path class="st1" d="M56,27.8c-1.6,0-3-1.1-3.4-2.7c-0.2-0.9-0.5-1.7-0.9-2.4c-0.2-0.4-0.6-0.7-1.1-0.7c-0.5-0.1-1,0.2-1.3,0.6
		c-2,2.4-4,3.6-5.8,3.3c-2.3-0.3-3.3-2.4-3.4-2.5c-4.6-9.3-12.9-8.5-13-8.5c0,0-0.1,0-0.1,0c-0.6,0-1.2,0.1-1.8,0.4
		c-2.2,0.9-4.7,0.2-6.1-1.6c-1.4-1.8-1.4-4.2,0-6.1l0.1-0.2C20,6.6,21,6,22.2,6c3.8-0.3,6.6-2.1,8.3-5.4C30.7,0.2,31.1,0,31.5,0
		C46.1,0.7,58,11.7,59.8,26.2c0.1,0.5-0.3,1-0.8,1.1c-0.8,0.2-1.7,0.3-2.5,0.4C56.3,27.8,56.2,27.8,56,27.8z"/>
	<path class="st1" d="M50.5,20c0.1,0,0.2,0,0.4,0c1.1,0.1,2.1,0.8,2.6,1.8c0.4,0.8,0.8,1.7,1,2.8c0.2,0.7,0.9,1.2,1.6,1.1
		c0.5-0.1,1-0.1,1.5-0.2C55.6,12.7,45,3,32,2.1c-1.5,2.6-4.4,5.5-9.6,5.9c-0.6,0.1-1.2,0.3-1.5,0.8l-0.1,0.1c-1,1.4-0.7,2.8,0,3.7
		c0.7,0.9,2.1,1.7,3.7,1c0.9-0.4,1.7-0.5,2.5-0.5c0.4,0,2.7-0.2,5.5,0.8c2.8,1,6.7,3.3,9.4,8.7c0,0,0.7,1.3,1.8,1.4
		c1.1,0.1,2.5-0.8,4.1-2.6C48.5,20.5,49.5,20,50.5,20z"/>
	<path class="st1" d="M3.6,28H1.2c-0.3,0-0.6-0.1-0.7-0.3s-0.3-0.5-0.3-0.8c0.6-5.6,2.7-11,6.2-15.4c0.3-0.4,0.8-0.5,1.2-0.3
		l3.8,1.9c1.6,0.8,2.7,2.3,3,4l0.1,0.5c0.4,2.4-0.8,4.7-3,5.8l-2,1c-0.5,0.3-1,0.7-1.3,1.2C7.2,27.1,5.5,28,3.6,28z"/>
	<path class="st1" d="M2.3,26h1.3c1.2,0,2.3-0.6,2.9-1.6c0.5-0.8,1.3-1.4,2.1-1.9l2-1c1.4-0.7,2.1-2.2,1.9-3.7l-0.1-0.5c0,0,0,0,0,0
		c-0.2-1.1-0.9-2.1-1.9-2.6l-3-1.5C4.8,17.1,3,21.4,2.3,26z"/>
	<path class="st1" d="M12.3,53.9c-0.2,0-0.4-0.1-0.6-0.2C5.1,48.6,0.9,41,0.2,32.8c0-0.4,0.2-0.8,0.6-1l1-0.4l0,0
		c2.1-0.9,4.5-0.4,6.1,1.2l1.9,1.9c0.5,0.5,1.1,0.8,1.8,1c2.6,0.5,4.5,2.8,4.5,5.4V41c0,1.5-0.4,3-1.3,4.2c-0.5,0.7-0.8,1.6-0.9,2.5
		L13.3,53c0,0.4-0.3,0.7-0.6,0.8C12.5,53.9,12.4,53.9,12.3,53.9z"/>
	<path class="st1" d="M2.2,33.3C3,40.1,6.3,46.4,11.5,51l0.4-3.5c0.1-1.2,0.6-2.4,1.2-3.4c0.6-0.9,0.9-2,0.9-3.1v-0.3
		c0-1.7-1.2-3.1-2.8-3.5c-1.1-0.2-2.1-0.7-2.8-1.5l-1.9-1.9c-1-1-2.6-1.3-3.9-0.8L2.2,33.3z"/>
</g>
</svg>
